<svg width="134" height="669" viewBox="0 0 134 669" fill="none" xmlns="http://www.w3.org/2000/svg">
<g clip-path="url(#clip0_551_601)">
<path d="M0.193389 668.763L133.786 558.199" stroke="#DA7448" stroke-miterlimit="10"/>
<path d="M0.193384 558.199L133.786 668.763" stroke="#DA7448" stroke-miterlimit="10"/>
<path d="M0.193389 599.018L133.786 488.454" stroke="#DA7448" stroke-miterlimit="10"/>
<path d="M0.193384 488.454L133.786 599.018" stroke="#DA7448" stroke-miterlimit="10"/>
<path d="M0.193389 529.273L133.786 418.709" stroke="#DA7448" stroke-miterlimit="10"/>
<path d="M0.193384 418.709L133.786 529.273" stroke="#DA7448" stroke-miterlimit="10"/>
<path d="M0.193389 459.527L133.786 348.963" stroke="#DA7448" stroke-miterlimit="10"/>
<path d="M0.193384 348.963L133.786 459.527" stroke="#DA7448" stroke-miterlimit="10"/>
<path d="M0.193389 389.782L133.786 279.218" stroke="#DA7448" stroke-miterlimit="10"/>
<path d="M0.193384 279.218L133.786 389.782" stroke="#DA7448" stroke-miterlimit="10"/>
<path d="M0.193389 320.037L133.786 209.473" stroke="#DA7448" stroke-miterlimit="10"/>
<path d="M0.193384 209.473L133.786 320.037" stroke="#DA7448" stroke-miterlimit="10"/>
<path d="M0.193389 250.291L133.786 139.727" stroke="#DA7448" stroke-miterlimit="10"/>
<path d="M0.193384 139.727L133.786 250.291" stroke="#DA7448" stroke-miterlimit="10"/>
<path d="M0.193389 180.546L133.786 69.9758" stroke="#DA7448" stroke-miterlimit="10"/>
<path d="M0.193384 69.9758L133.786 180.546" stroke="#DA7448" stroke-miterlimit="10"/>
<path d="M0.193389 110.801L133.786 0.230348" stroke="#DA7448" stroke-miterlimit="10"/>
<path d="M0.193384 0.230354L133.786 110.801" stroke="#DA7448" stroke-miterlimit="10"/>
</g>
<defs>
<clipPath id="clip0_551_601">
<rect width="669" height="133.981" fill="white" transform="translate(2.92429e-05 669) rotate(-90)"/>
</clipPath>
</defs>
</svg>
