<svg width="589" height="134" viewBox="0 0 589 134" fill="none" xmlns="http://www.w3.org/2000/svg">
<g clip-path="url(#clip0_443_228)">
<path d="M588.764 133.787L478.2 0.194256" stroke="#DA7448" stroke-miterlimit="10"/>
<path d="M478.2 133.787L588.764 0.194266" stroke="#DA7448" stroke-miterlimit="10"/>
<path d="M519.018 133.787L408.454 0.194256" stroke="#DA7448" stroke-miterlimit="10"/>
<path d="M408.454 133.787L519.018 0.194266" stroke="#DA7448" stroke-miterlimit="10"/>
<path d="M449.273 133.787L338.709 0.194256" stroke="#DA7448" stroke-miterlimit="10"/>
<path d="M338.709 133.787L449.273 0.194266" stroke="#DA7448" stroke-miterlimit="10"/>
<path d="M379.527 133.787L268.963 0.194256" stroke="#DA7448" stroke-miterlimit="10"/>
<path d="M268.963 133.787L379.527 0.194266" stroke="#DA7448" stroke-miterlimit="10"/>
<path d="M309.781 133.787L199.217 0.194256" stroke="#DA7448" stroke-miterlimit="10"/>
<path d="M199.217 133.787L309.781 0.194266" stroke="#DA7448" stroke-miterlimit="10"/>
<path d="M240.037 133.787L129.473 0.194256" stroke="#DA7448" stroke-miterlimit="10"/>
<path d="M129.473 133.787L240.037 0.194266" stroke="#DA7448" stroke-miterlimit="10"/>
<path d="M170.291 133.787L59.727 0.194256" stroke="#DA7448" stroke-miterlimit="10"/>
<path d="M59.7269 133.787L170.291 0.194266" stroke="#DA7448" stroke-miterlimit="10"/>
<path d="M100.547 133.787L-10.0232 0.194256" stroke="#DA7448" stroke-miterlimit="10"/>
<path d="M-10.0232 133.787L100.547 0.194266" stroke="#DA7448" stroke-miterlimit="10"/>
<path d="M30.8008 133.787L-79.7694 0.194256" stroke="#DA7448" stroke-miterlimit="10"/>
<path d="M-79.7694 133.787L30.8008 0.194266" stroke="#DA7448" stroke-miterlimit="10"/>
</g>
<defs>
<clipPath id="clip0_443_228">
<rect width="669" height="133.981" fill="white" transform="translate(589 133.981) rotate(-180)"/>
</clipPath>
</defs>
</svg>
